<svg xmlns="http://www.w3.org/2000/svg" width="2295" height="489" viewBox="0 0 2295 489" role="img" aria-label="ToDiagram Export"><style type="text/css"><![CDATA[
@import url('https://fonts.googleapis.com/css2?family=Geist+Mono:wght@100..900&display=swap');
svg { text-rendering: optimizeLegibility; shape-rendering: geometricPrecision; }
]]></style><defs><clipPath id="clip-1"><path d="M 516.5 113 h 193 a 4 4 0 0 1 4 4 v 55 a 4 4 0 0 1 -4 4 h -193 a 4 4 0 0 1 -4 -4 v -55 a 4 4 0 0 1 4 -4 Z"/></clipPath><clipPath id="clip-2"><path d="M 516.5 113 h 193 a 4 4 0 0 1 4 4 v 55 a 4 4 0 0 1 -4 4 h -193 a 4 4 0 0 1 -4 -4 v -55 a 4 4 0 0 1 4 -4 Z"/></clipPath><clipPath id="clip-3"><path d="M 1289.5 12 h 235 a 4 4 0 0 1 4 4 v 55 a 4 4 0 0 1 -4 4 h -235 a 4 4 0 0 1 -4 -4 v -55 a 4 4 0 0 1 4 -4 Z"/></clipPath><clipPath id="clip-4"><path d="M 1289.5 12 h 235 a 4 4 0 0 1 4 4 v 55 a 4 4 0 0 1 -4 4 h -235 a 4 4 0 0 1 -4 -4 v -55 a 4 4 0 0 1 4 -4 Z"/></clipPath><clipPath id="clip-5"><path d="M 1289.5 95 h 184 a 4 4 0 0 1 4 4 v 55 a 4 4 0 0 1 -4 4 h -184 a 4 4 0 0 1 -4 -4 v -55 a 4 4 0 0 1 4 -4 Z"/></clipPath><clipPath id="clip-6"><path d="M 1289.5 95 h 184 a 4 4 0 0 1 4 4 v 55 a 4 4 0 0 1 -4 4 h -184 a 4 4 0 0 1 -4 -4 v -55 a 4 4 0 0 1 4 -4 Z"/></clipPath><clipPath id="clip-7"><path d="M 1816.5 249 h 462 a 4 4 0 0 1 4 4 v 55 a 4 4 0 0 1 -4 4 h -462 a 4 4 0 0 1 -4 -4 v -55 a 4 4 0 0 1 4 -4 Z"/></clipPath><clipPath id="clip-8"><path d="M 1816.5 249 h 462 a 4 4 0 0 1 4 4 v 55 a 4 4 0 0 1 -4 4 h -462 a 4 4 0 0 1 -4 -4 v -55 a 4 4 0 0 1 4 -4 Z"/></clipPath><clipPath id="clip-9"><path d="M 1289.5 178 h 478 a 4 4 0 0 1 4 4 v 119 a 4 4 0 0 1 -4 4 h -478 a 4 4 0 0 1 -4 -4 v -119 a 4 4 0 0 1 4 -4 Z"/></clipPath><clipPath id="clip-10"><path d="M 1289.5 178 h 478 a 4 4 0 0 1 4 4 v 119 a 4 4 0 0 1 -4 4 h -478 a 4 4 0 0 1 -4 -4 v -119 a 4 4 0 0 1 4 -4 Z"/></clipPath><clipPath id="clip-11"><path d="M 1289.5 178 h 478 a 4 4 0 0 1 4 4 v 119 a 4 4 0 0 1 -4 4 h -478 a 4 4 0 0 1 -4 -4 v -119 a 4 4 0 0 1 4 -4 Z"/></clipPath><clipPath id="clip-12"><path d="M 1289.5 178 h 478 a 4 4 0 0 1 4 4 v 119 a 4 4 0 0 1 -4 4 h -478 a 4 4 0 0 1 -4 -4 v -119 a 4 4 0 0 1 4 -4 Z"/></clipPath><clipPath id="clip-13"><path d="M 878.5 24 h 302 a 4 4 0 0 1 4 4 v 151 a 4 4 0 0 1 -4 4 h -302 a 4 4 0 0 1 -4 -4 v -151 a 4 4 0 0 1 4 -4 Z"/></clipPath><clipPath id="clip-14"><path d="M 878.5 24 h 302 a 4 4 0 0 1 4 4 v 151 a 4 4 0 0 1 -4 4 h -302 a 4 4 0 0 1 -4 -4 v -151 a 4 4 0 0 1 4 -4 Z"/></clipPath><clipPath id="clip-15"><path d="M 878.5 24 h 302 a 4 4 0 0 1 4 4 v 151 a 4 4 0 0 1 -4 4 h -302 a 4 4 0 0 1 -4 -4 v -151 a 4 4 0 0 1 4 -4 Z"/></clipPath><clipPath id="clip-16"><path d="M 878.5 24 h 302 a 4 4 0 0 1 4 4 v 151 a 4 4 0 0 1 -4 4 h -302 a 4 4 0 0 1 -4 -4 v -151 a 4 4 0 0 1 4 -4 Z"/></clipPath><clipPath id="clip-17"><path d="M 878.5 24 h 302 a 4 4 0 0 1 4 4 v 151 a 4 4 0 0 1 -4 4 h -302 a 4 4 0 0 1 -4 -4 v -151 a 4 4 0 0 1 4 -4 Z"/></clipPath><clipPath id="clip-18"><path d="M 878.5 203 h 302 a 4 4 0 0 1 4 4 v 119 a 4 4 0 0 1 -4 4 h -302 a 4 4 0 0 1 -4 -4 v -119 a 4 4 0 0 1 4 -4 Z"/></clipPath><clipPath id="clip-19"><path d="M 878.5 203 h 302 a 4 4 0 0 1 4 4 v 119 a 4 4 0 0 1 -4 4 h -302 a 4 4 0 0 1 -4 -4 v -119 a 4 4 0 0 1 4 -4 Z"/></clipPath><clipPath id="clip-20"><path d="M 878.5 203 h 302 a 4 4 0 0 1 4 4 v 119 a 4 4 0 0 1 -4 4 h -302 a 4 4 0 0 1 -4 -4 v -119 a 4 4 0 0 1 4 -4 Z"/></clipPath><clipPath id="clip-21"><path d="M 878.5 203 h 302 a 4 4 0 0 1 4 4 v 119 a 4 4 0 0 1 -4 4 h -302 a 4 4 0 0 1 -4 -4 v -119 a 4 4 0 0 1 4 -4 Z"/></clipPath><clipPath id="clip-22"><path d="M 878.5 350 h 302 a 4 4 0 0 1 4 4 v 119 a 4 4 0 0 1 -4 4 h -302 a 4 4 0 0 1 -4 -4 v -119 a 4 4 0 0 1 4 -4 Z"/></clipPath><clipPath id="clip-23"><path d="M 878.5 350 h 302 a 4 4 0 0 1 4 4 v 119 a 4 4 0 0 1 -4 4 h -302 a 4 4 0 0 1 -4 -4 v -119 a 4 4 0 0 1 4 -4 Z"/></clipPath><clipPath id="clip-24"><path d="M 878.5 350 h 302 a 4 4 0 0 1 4 4 v 119 a 4 4 0 0 1 -4 4 h -302 a 4 4 0 0 1 -4 -4 v -119 a 4 4 0 0 1 4 -4 Z"/></clipPath><clipPath id="clip-25"><path d="M 878.5 350 h 302 a 4 4 0 0 1 4 4 v 119 a 4 4 0 0 1 -4 4 h -302 a 4 4 0 0 1 -4 -4 v -119 a 4 4 0 0 1 4 -4 Z"/></clipPath><clipPath id="clip-26"><path d="M 576.5 196 h 193 a 4 4 0 0 1 4 4 v 119 a 4 4 0 0 1 -4 4 h -193 a 4 4 0 0 1 -4 -4 v -119 a 4 4 0 0 1 4 -4 Z"/></clipPath><clipPath id="clip-27"><path d="M 576.5 196 h 193 a 4 4 0 0 1 4 4 v 119 a 4 4 0 0 1 -4 4 h -193 a 4 4 0 0 1 -4 -4 v -119 a 4 4 0 0 1 4 -4 Z"/></clipPath><clipPath id="clip-28"><path d="M 576.5 196 h 193 a 4 4 0 0 1 4 4 v 119 a 4 4 0 0 1 -4 4 h -193 a 4 4 0 0 1 -4 -4 v -119 a 4 4 0 0 1 4 -4 Z"/></clipPath><clipPath id="clip-29"><path d="M 576.5 196 h 193 a 4 4 0 0 1 4 4 v 119 a 4 4 0 0 1 -4 4 h -193 a 4 4 0 0 1 -4 -4 v -119 a 4 4 0 0 1 4 -4 Z"/></clipPath><clipPath id="clip-30"><path d="M 207.5 74 h 260 a 4 4 0 0 1 4 4 v 119 a 4 4 0 0 1 -4 4 h -260 a 4 4 0 0 1 -4 -4 v -119 a 4 4 0 0 1 4 -4 Z"/></clipPath><clipPath id="clip-31"><path d="M 207.5 74 h 260 a 4 4 0 0 1 4 4 v 119 a 4 4 0 0 1 -4 4 h -260 a 4 4 0 0 1 -4 -4 v -119 a 4 4 0 0 1 4 -4 Z"/></clipPath><clipPath id="clip-32"><path d="M 207.5 74 h 260 a 4 4 0 0 1 4 4 v 119 a 4 4 0 0 1 -4 4 h -260 a 4 4 0 0 1 -4 -4 v -119 a 4 4 0 0 1 4 -4 Z"/></clipPath><clipPath id="clip-33"><path d="M 207.5 74 h 260 a 4 4 0 0 1 4 4 v 119 a 4 4 0 0 1 -4 4 h -260 a 4 4 0 0 1 -4 -4 v -119 a 4 4 0 0 1 4 -4 Z"/></clipPath><clipPath id="clip-34"><path d="M 16.5 99 h 142 a 4 4 0 0 1 4 4 v 55 a 4 4 0 0 1 -4 4 h -142 a 4 4 0 0 1 -4 -4 v -55 a 4 4 0 0 1 4 -4 Z"/></clipPath><clipPath id="clip-35"><path d="M 16.5 99 h 142 a 4 4 0 0 1 4 4 v 55 a 4 4 0 0 1 -4 4 h -142 a 4 4 0 0 1 -4 -4 v -55 a 4 4 0 0 1 4 -4 Z"/></clipPath></defs><path d="M 518.5 115 h 195 a 4 4 0 0 1 4 4 v 57 a 4 4 0 0 1 -4 4 h -195 a 4 4 0 0 1 -4 -4 v -57 a 4 4 0 0 1 4 -4 Z" fill="rgba(24, 24, 24, 0.08)" stroke="none"/><path d="M 516.5 113 h 193 a 4 4 0 0 1 4 4 v 55 a 4 4 0 0 1 -4 4 h -193 a 4 4 0 0 1 -4 -4 v -55 a 4 4 0 0 1 4 -4 Z" fill="#303030" stroke="none"/><g clip-path="url(#clip-1)"><rect x="512.5" y="113" width="201" height="32" fill="#1b3225" stroke="none"/></g><text x="524.8" y="132.8" fill="#5eed9f" font-family="'Geist Mono', ui-monospace, SFMono-Regular, Menlo, Monaco, Consolas, 'Liberation Mono', 'Courier New', monospace" font-size="14" font-weight="300" text-anchor="start" dominant-baseline="alphabetic">vnet_address_space[0]</text><g clip-path="url(#clip-2)"><rect x="512.5" y="145" width="201" height="31" fill="#303030" stroke="none"/></g><path d="M 512.5 144.5 L 713.5 144.5" stroke="#414141" stroke-width="1" stroke-linecap="round" stroke-linejoin="round" fill="none"/><text x="524.8" y="164.8" fill="#E6E7E8" font-family="'Geist Mono', ui-monospace, SFMono-Regular, Menlo, Monaco, Consolas, 'Liberation Mono', 'Courier New', monospace" font-size="14" font-weight="300" text-anchor="start" dominant-baseline="alphabetic">10.0.0.0/16</text><path d="M 516.5 113 h 193 a 4 4 0 0 1 4 4 v 55 a 4 4 0 0 1 -4 4 h -193 a 4 4 0 0 1 -4 -4 v -55 a 4 4 0 0 1 4 -4 Z" stroke="#2D533D" stroke-width="1" stroke-linecap="round" stroke-linejoin="round" fill="none"/><path d="M 1291.5 14 h 237 a 4 4 0 0 1 4 4 v 57 a 4 4 0 0 1 -4 4 h -237 a 4 4 0 0 1 -4 -4 v -57 a 4 4 0 0 1 4 -4 Z" fill="rgba(24, 24, 24, 0.08)" stroke="none"/><path d="M 1289.5 12 h 235 a 4 4 0 0 1 4 4 v 55 a 4 4 0 0 1 -4 4 h -235 a 4 4 0 0 1 -4 -4 v -55 a 4 4 0 0 1 4 -4 Z" fill="#303030" stroke="none"/><g clip-path="url(#clip-3)"><rect x="1285.5" y="12" width="243" height="32" fill="#1c1b32" stroke="none"/></g><text x="1297.6" y="32" fill="#655eed" font-family="'Geist Mono', ui-monospace, SFMono-Regular, Menlo, Monaco, Consolas, 'Liberation Mono', 'Courier New', monospace" font-size="14" font-weight="300" text-anchor="start" dominant-baseline="alphabetic">subnet_address_prefixes[0]</text><g clip-path="url(#clip-4)"><rect x="1285.5" y="44" width="243" height="31" fill="#303030" stroke="none"/></g><path d="M 1285.5 43.5 L 1528.5 43.5" stroke="#414141" stroke-width="1" stroke-linecap="round" stroke-linejoin="round" fill="none"/><text x="1297.6" y="63.2" fill="#E6E7E8" font-family="'Geist Mono', ui-monospace, SFMono-Regular, Menlo, Monaco, Consolas, 'Liberation Mono', 'Courier New', monospace" font-size="14" font-weight="300" text-anchor="start" dominant-baseline="alphabetic">10.0.1.0/24</text><path d="M 1289.5 12 h 235 a 4 4 0 0 1 4 4 v 55 a 4 4 0 0 1 -4 4 h -235 a 4 4 0 0 1 -4 -4 v -55 a 4 4 0 0 1 4 -4 Z" stroke="#2E2D53" stroke-width="1" stroke-linecap="round" stroke-linejoin="round" fill="none"/><path d="M 1291.5 97 h 186 a 4 4 0 0 1 4 4 v 57 a 4 4 0 0 1 -4 4 h -186 a 4 4 0 0 1 -4 -4 v -57 a 4 4 0 0 1 4 -4 Z" fill="rgba(24, 24, 24, 0.08)" stroke="none"/><path d="M 1289.5 95 h 184 a 4 4 0 0 1 4 4 v 55 a 4 4 0 0 1 -4 4 h -184 a 4 4 0 0 1 -4 -4 v -55 a 4 4 0 0 1 4 -4 Z" fill="#303030" stroke="none"/><g clip-path="url(#clip-5)"><rect x="1285.5" y="95" width="192" height="32" fill="#251b32" stroke="none"/></g><text x="1297.6" y="114.4" fill="#9c5eed" font-family="'Geist Mono', ui-monospace, SFMono-Regular, Menlo, Monaco, Consolas, 'Liberation Mono', 'Courier New', monospace" font-size="14" font-weight="300" text-anchor="start" dominant-baseline="alphabetic">service_endpoints[0]</text><g clip-path="url(#clip-6)"><rect x="1285.5" y="127" width="192" height="31" fill="#303030" stroke="none"/></g><path d="M 1285.5 126.5 L 1477.5 126.5" stroke="#414141" stroke-width="1" stroke-linecap="round" stroke-linejoin="round" fill="none"/><text x="1297.6" y="146.4" fill="#E6E7E8" font-family="'Geist Mono', ui-monospace, SFMono-Regular, Menlo, Monaco, Consolas, 'Liberation Mono', 'Courier New', monospace" font-size="14" font-weight="300" text-anchor="start" dominant-baseline="alphabetic">Microsoft.Storage</text><path d="M 1289.5 95 h 184 a 4 4 0 0 1 4 4 v 55 a 4 4 0 0 1 -4 4 h -184 a 4 4 0 0 1 -4 -4 v -55 a 4 4 0 0 1 4 -4 Z" stroke="#3D2D53" stroke-width="1" stroke-linecap="round" stroke-linejoin="round" fill="none"/><path d="M 1818.5 251 h 464 a 4 4 0 0 1 4 4 v 57 a 4 4 0 0 1 -4 4 h -464 a 4 4 0 0 1 -4 -4 v -57 a 4 4 0 0 1 4 -4 Z" fill="rgba(24, 24, 24, 0.08)" stroke="none"/><path d="M 1816.5 249 h 462 a 4 4 0 0 1 4 4 v 55 a 4 4 0 0 1 -4 4 h -462 a 4 4 0 0 1 -4 -4 v -55 a 4 4 0 0 1 4 -4 Z" fill="#303030" stroke="none"/><g clip-path="url(#clip-7)"><rect x="1812.5" y="249" width="470" height="32" fill="#1b2632" stroke="none"/></g><text x="1824.8" y="268.8" fill="#5ea6ed" font-family="'Geist Mono', ui-monospace, SFMono-Regular, Menlo, Monaco, Consolas, 'Liberation Mono', 'Courier New', monospace" font-size="14" font-weight="300" text-anchor="start" dominant-baseline="alphabetic">actions[0]</text><g clip-path="url(#clip-8)"><rect x="1812.5" y="281" width="470" height="31" fill="#303030" stroke="none"/></g><path d="M 1812.5 280.5 L 2282.5 280.5" stroke="#414141" stroke-width="1" stroke-linecap="round" stroke-linejoin="round" fill="none"/><text x="1824.8" y="300.8" fill="#E6E7E8" font-family="'Geist Mono', ui-monospace, SFMono-Regular, Menlo, Monaco, Consolas, 'Liberation Mono', 'Courier New', monospace" font-size="14" font-weight="300" text-anchor="start" dominant-baseline="alphabetic">Microsoft.Network/virtualNetworks/subnets/join/action</text><path d="M 1816.5 249 h 462 a 4 4 0 0 1 4 4 v 55 a 4 4 0 0 1 -4 4 h -462 a 4 4 0 0 1 -4 -4 v -55 a 4 4 0 0 1 4 -4 Z" stroke="#2D3F53" stroke-width="1" stroke-linecap="round" stroke-linejoin="round" fill="none"/><path d="M 1291.5 180 h 480 a 4 4 0 0 1 4 4 v 121 a 4 4 0 0 1 -4 4 h -480 a 4 4 0 0 1 -4 -4 v -121 a 4 4 0 0 1 4 -4 Z" fill="rgba(24, 24, 24, 0.08)" stroke="none"/><path d="M 1289.5 178 h 478 a 4 4 0 0 1 4 4 v 119 a 4 4 0 0 1 -4 4 h -478 a 4 4 0 0 1 -4 -4 v -119 a 4 4 0 0 1 4 -4 Z" fill="#303030" stroke="none"/><g clip-path="url(#clip-9)"><rect x="1285.5" y="178" width="486" height="32" fill="#321b29" stroke="none"/></g><text x="1297.6" y="197.6" fill="#ed5eb6" font-family="'Geist Mono', ui-monospace, SFMono-Regular, Menlo, Monaco, Consolas, 'Liberation Mono', 'Courier New', monospace" font-size="14" font-weight="300" text-anchor="start" dominant-baseline="alphabetic">delegations[0]</text><g clip-path="url(#clip-10)"><rect x="1285.5" y="210" width="486" height="31" fill="#303030" stroke="none"/></g><path d="M 1285.5 209.5 L 1771.5 209.5" stroke="#414141" stroke-width="1" stroke-linecap="round" stroke-linejoin="round" fill="none"/><text x="1297.6" y="229.6" fill="#5199FF" font-family="'Geist Mono', ui-monospace, SFMono-Regular, Menlo, Monaco, Consolas, 'Liberation Mono', 'Courier New', monospace" font-size="14" font-weight="300" text-anchor="start" dominant-baseline="alphabetic">name: </text><text x="1348" y="229.6" fill="#E6E7E8" font-family="'Geist Mono', ui-monospace, SFMono-Regular, Menlo, Monaco, Consolas, 'Liberation Mono', 'Courier New', monospace" font-size="14" font-weight="300" text-anchor="start" dominant-baseline="alphabetic">dlg-postgresql-flexible</text><g clip-path="url(#clip-11)"><rect x="1285.5" y="242" width="486" height="31" fill="#303030" stroke="none"/></g><path d="M 1285.5 241.5 L 1771.5 241.5" stroke="#414141" stroke-width="1" stroke-linecap="round" stroke-linejoin="round" fill="none"/><text x="1297.6" y="261.6" fill="#5199FF" font-family="'Geist Mono', ui-monospace, SFMono-Regular, Menlo, Monaco, Consolas, 'Liberation Mono', 'Courier New', monospace" font-size="14" font-weight="300" text-anchor="start" dominant-baseline="alphabetic">service_name: </text><text x="1415.2" y="261.6" fill="#E6E7E8" font-family="'Geist Mono', ui-monospace, SFMono-Regular, Menlo, Monaco, Consolas, 'Liberation Mono', 'Courier New', monospace" font-size="14" font-weight="300" text-anchor="start" dominant-baseline="alphabetic">Microsoft.DBforPostgreSQL/flexibleServers</text><g clip-path="url(#clip-12)"><rect x="1285.5" y="274" width="486" height="31" fill="#262626" stroke="none"/></g><path d="M 1285.5 273.5 L 1771.5 273.5" stroke="#414141" stroke-width="1" stroke-linecap="round" stroke-linejoin="round" fill="none"/><text x="1297.6" y="293.6" fill="#5199FF" font-family="'Geist Mono', ui-monospace, SFMono-Regular, Menlo, Monaco, Consolas, 'Liberation Mono', 'Courier New', monospace" font-size="14" font-weight="300" text-anchor="start" dominant-baseline="alphabetic">actions: </text><text x="1372.8" y="293.6" fill="#E6E7E8" font-family="'Geist Mono', ui-monospace, SFMono-Regular, Menlo, Monaco, Consolas, 'Liberation Mono', 'Courier New', monospace" font-size="14" font-weight="300" text-anchor="start" dominant-baseline="alphabetic">[1 items]</text><path d="M 1289.5 178 h 478 a 4 4 0 0 1 4 4 v 119 a 4 4 0 0 1 -4 4 h -478 a 4 4 0 0 1 -4 -4 v -119 a 4 4 0 0 1 4 -4 Z" stroke="#532D44" stroke-width="1" stroke-linecap="round" stroke-linejoin="round" fill="none"/><path d="M 880.5 26 h 304 a 4 4 0 0 1 4 4 v 153 a 4 4 0 0 1 -4 4 h -304 a 4 4 0 0 1 -4 -4 v -153 a 4 4 0 0 1 4 -4 Z" fill="rgba(24, 24, 24, 0.08)" stroke="none"/><path d="M 878.5 24 h 302 a 4 4 0 0 1 4 4 v 151 a 4 4 0 0 1 -4 4 h -302 a 4 4 0 0 1 -4 -4 v -151 a 4 4 0 0 1 4 -4 Z" fill="#303030" stroke="none"/><g clip-path="url(#clip-13)"><rect x="874.5" y="24" width="310" height="32" fill="#322f1b" stroke="none"/></g><text x="886.4" y="44" fill="#edda5e" font-family="'Geist Mono', ui-monospace, SFMono-Regular, Menlo, Monaco, Consolas, 'Liberation Mono', 'Courier New', monospace" font-size="14" font-weight="300" text-anchor="start" dominant-baseline="alphabetic">postgressSN</text><g clip-path="url(#clip-14)"><rect x="874.5" y="56" width="310" height="31" fill="#303030" stroke="none"/></g><path d="M 874.5 55.5 L 1184.5 55.5" stroke="#414141" stroke-width="1" stroke-linecap="round" stroke-linejoin="round" fill="none"/><text x="886.4" y="75.2" fill="#5199FF" font-family="'Geist Mono', ui-monospace, SFMono-Regular, Menlo, Monaco, Consolas, 'Liberation Mono', 'Courier New', monospace" font-size="14" font-weight="300" text-anchor="start" dominant-baseline="alphabetic">subnet_name: </text><text x="996" y="75.2" fill="#E6E7E8" font-family="'Geist Mono', ui-monospace, SFMono-Regular, Menlo, Monaco, Consolas, 'Liberation Mono', 'Courier New', monospace" font-size="14" font-weight="300" text-anchor="start" dominant-baseline="alphabetic">snet-postgres</text><g clip-path="url(#clip-15)"><rect x="874.5" y="88" width="310" height="31" fill="#262626" stroke="none"/></g><path d="M 874.5 87.5 L 1184.5 87.5" stroke="#414141" stroke-width="1" stroke-linecap="round" stroke-linejoin="round" fill="none"/><text x="886.4" y="107.2" fill="#5199FF" font-family="'Geist Mono', ui-monospace, SFMono-Regular, Menlo, Monaco, Consolas, 'Liberation Mono', 'Courier New', monospace" font-size="14" font-weight="300" text-anchor="start" dominant-baseline="alphabetic">subnet_address_prefixes: </text><text x="1096.8" y="107.2" fill="#E6E7E8" font-family="'Geist Mono', ui-monospace, SFMono-Regular, Menlo, Monaco, Consolas, 'Liberation Mono', 'Courier New', monospace" font-size="14" font-weight="300" text-anchor="start" dominant-baseline="alphabetic">[1 items]</text><g clip-path="url(#clip-16)"><rect x="874.5" y="120" width="310" height="31" fill="#262626" stroke="none"/></g><path d="M 874.5 119.5 L 1184.5 119.5" stroke="#414141" stroke-width="1" stroke-linecap="round" stroke-linejoin="round" fill="none"/><text x="886.4" y="139.2" fill="#5199FF" font-family="'Geist Mono', ui-monospace, SFMono-Regular, Menlo, Monaco, Consolas, 'Liberation Mono', 'Courier New', monospace" font-size="14" font-weight="300" text-anchor="start" dominant-baseline="alphabetic">service_endpoints: </text><text x="1046.4" y="139.2" fill="#E6E7E8" font-family="'Geist Mono', ui-monospace, SFMono-Regular, Menlo, Monaco, Consolas, 'Liberation Mono', 'Courier New', monospace" font-size="14" font-weight="300" text-anchor="start" dominant-baseline="alphabetic">[1 items]</text><g clip-path="url(#clip-17)"><rect x="874.5" y="152" width="310" height="31" fill="#262626" stroke="none"/></g><path d="M 874.5 151.5 L 1184.5 151.5" stroke="#414141" stroke-width="1" stroke-linecap="round" stroke-linejoin="round" fill="none"/><text x="886.4" y="171.2" fill="#5199FF" font-family="'Geist Mono', ui-monospace, SFMono-Regular, Menlo, Monaco, Consolas, 'Liberation Mono', 'Courier New', monospace" font-size="14" font-weight="300" text-anchor="start" dominant-baseline="alphabetic">delegations: </text><text x="996" y="171.2" fill="#E6E7E8" font-family="'Geist Mono', ui-monospace, SFMono-Regular, Menlo, Monaco, Consolas, 'Liberation Mono', 'Courier New', monospace" font-size="14" font-weight="300" text-anchor="start" dominant-baseline="alphabetic">[1 items]</text><path d="M 878.5 24 h 302 a 4 4 0 0 1 4 4 v 151 a 4 4 0 0 1 -4 4 h -302 a 4 4 0 0 1 -4 -4 v -151 a 4 4 0 0 1 4 -4 Z" stroke="#534E2D" stroke-width="1" stroke-linecap="round" stroke-linejoin="round" fill="none"/><path d="M 880.5 205 h 304 a 4 4 0 0 1 4 4 v 121 a 4 4 0 0 1 -4 4 h -304 a 4 4 0 0 1 -4 -4 v -121 a 4 4 0 0 1 4 -4 Z" fill="rgba(24, 24, 24, 0.08)" stroke="none"/><path d="M 878.5 203 h 302 a 4 4 0 0 1 4 4 v 119 a 4 4 0 0 1 -4 4 h -302 a 4 4 0 0 1 -4 -4 v -119 a 4 4 0 0 1 4 -4 Z" fill="#303030" stroke="none"/><g clip-path="url(#clip-18)"><rect x="874.5" y="203" width="310" height="32" fill="#322a1b" stroke="none"/></g><text x="886.4" y="222.4" fill="#edbb5e" font-family="'Geist Mono', ui-monospace, SFMono-Regular, Menlo, Monaco, Consolas, 'Liberation Mono', 'Courier New', monospace" font-size="14" font-weight="300" text-anchor="start" dominant-baseline="alphabetic">frontend</text><g clip-path="url(#clip-19)"><rect x="874.5" y="235" width="310" height="31" fill="#303030" stroke="none"/></g><path d="M 874.5 234.5 L 1184.5 234.5" stroke="#414141" stroke-width="1" stroke-linecap="round" stroke-linejoin="round" fill="none"/><text x="886.4" y="254.4" fill="#5199FF" font-family="'Geist Mono', ui-monospace, SFMono-Regular, Menlo, Monaco, Consolas, 'Liberation Mono', 'Courier New', monospace" font-size="14" font-weight="300" text-anchor="start" dominant-baseline="alphabetic">subnet_name: </text><text x="996" y="254.4" fill="#E6E7E8" font-family="'Geist Mono', ui-monospace, SFMono-Regular, Menlo, Monaco, Consolas, 'Liberation Mono', 'Courier New', monospace" font-size="14" font-weight="300" text-anchor="start" dominant-baseline="alphabetic">snet-frontend</text><g clip-path="url(#clip-20)"><rect x="874.5" y="267" width="310" height="31" fill="#262626" stroke="none"/></g><path d="M 874.5 266.5 L 1184.5 266.5" stroke="#414141" stroke-width="1" stroke-linecap="round" stroke-linejoin="round" fill="none"/><text x="886.4" y="286.4" fill="#5199FF" font-family="'Geist Mono', ui-monospace, SFMono-Regular, Menlo, Monaco, Consolas, 'Liberation Mono', 'Courier New', monospace" font-size="14" font-weight="300" text-anchor="start" dominant-baseline="alphabetic">subnet_address_prefixes: </text><text x="1096.8" y="286.4" fill="#E6E7E8" font-family="'Geist Mono', ui-monospace, SFMono-Regular, Menlo, Monaco, Consolas, 'Liberation Mono', 'Courier New', monospace" font-size="14" font-weight="300" text-anchor="start" dominant-baseline="alphabetic">[1 items]</text><g clip-path="url(#clip-21)"><rect x="874.5" y="299" width="310" height="31" fill="#303030" stroke="none"/></g><path d="M 874.5 298.5 L 1184.5 298.5" stroke="#414141" stroke-width="1" stroke-linecap="round" stroke-linejoin="round" fill="none"/><text x="886.4" y="318.4" fill="#5199FF" font-family="'Geist Mono', ui-monospace, SFMono-Regular, Menlo, Monaco, Consolas, 'Liberation Mono', 'Courier New', monospace" font-size="14" font-weight="300" text-anchor="start" dominant-baseline="alphabetic">service_endpoints: </text><text x="1046.4" y="318.4" fill="#E6E7E8" font-family="'Geist Mono', ui-monospace, SFMono-Regular, Menlo, Monaco, Consolas, 'Liberation Mono', 'Courier New', monospace" font-size="14" font-weight="300" text-anchor="start" dominant-baseline="alphabetic">[0 items]</text><path d="M 878.5 203 h 302 a 4 4 0 0 1 4 4 v 119 a 4 4 0 0 1 -4 4 h -302 a 4 4 0 0 1 -4 -4 v -119 a 4 4 0 0 1 4 -4 Z" stroke="#53452D" stroke-width="1" stroke-linecap="round" stroke-linejoin="round" fill="none"/><path d="M 880.5 352 h 304 a 4 4 0 0 1 4 4 v 121 a 4 4 0 0 1 -4 4 h -304 a 4 4 0 0 1 -4 -4 v -121 a 4 4 0 0 1 4 -4 Z" fill="rgba(24, 24, 24, 0.08)" stroke="none"/><path d="M 878.5 350 h 302 a 4 4 0 0 1 4 4 v 119 a 4 4 0 0 1 -4 4 h -302 a 4 4 0 0 1 -4 -4 v -119 a 4 4 0 0 1 4 -4 Z" fill="#303030" stroke="none"/><g clip-path="url(#clip-22)"><rect x="874.5" y="350" width="310" height="32" fill="#321b1f" stroke="none"/></g><text x="886.4" y="369.6" fill="#ed5e76" font-family="'Geist Mono', ui-monospace, SFMono-Regular, Menlo, Monaco, Consolas, 'Liberation Mono', 'Courier New', monospace" font-size="14" font-weight="300" text-anchor="start" dominant-baseline="alphabetic">backend</text><g clip-path="url(#clip-23)"><rect x="874.5" y="382" width="310" height="31" fill="#303030" stroke="none"/></g><path d="M 874.5 381.5 L 1184.5 381.5" stroke="#414141" stroke-width="1" stroke-linecap="round" stroke-linejoin="round" fill="none"/><text x="886.4" y="401.6" fill="#5199FF" font-family="'Geist Mono', ui-monospace, SFMono-Regular, Menlo, Monaco, Consolas, 'Liberation Mono', 'Courier New', monospace" font-size="14" font-weight="300" text-anchor="start" dominant-baseline="alphabetic">subnet_name: </text><text x="996" y="401.6" fill="#E6E7E8" font-family="'Geist Mono', ui-monospace, SFMono-Regular, Menlo, Monaco, Consolas, 'Liberation Mono', 'Courier New', monospace" font-size="14" font-weight="300" text-anchor="start" dominant-baseline="alphabetic">snet-backend</text><g clip-path="url(#clip-24)"><rect x="874.5" y="414" width="310" height="31" fill="#262626" stroke="none"/></g><path d="M 874.5 413.5 L 1184.5 413.5" stroke="#414141" stroke-width="1" stroke-linecap="round" stroke-linejoin="round" fill="none"/><text x="886.4" y="433.6" fill="#5199FF" font-family="'Geist Mono', ui-monospace, SFMono-Regular, Menlo, Monaco, Consolas, 'Liberation Mono', 'Courier New', monospace" font-size="14" font-weight="300" text-anchor="start" dominant-baseline="alphabetic">subnet_address_prefixes: </text><text x="1096.8" y="433.6" fill="#E6E7E8" font-family="'Geist Mono', ui-monospace, SFMono-Regular, Menlo, Monaco, Consolas, 'Liberation Mono', 'Courier New', monospace" font-size="14" font-weight="300" text-anchor="start" dominant-baseline="alphabetic">[1 items]</text><g clip-path="url(#clip-25)"><rect x="874.5" y="446" width="310" height="31" fill="#262626" stroke="none"/></g><path d="M 874.5 445.5 L 1184.5 445.5" stroke="#414141" stroke-width="1" stroke-linecap="round" stroke-linejoin="round" fill="none"/><text x="886.4" y="465.6" fill="#5199FF" font-family="'Geist Mono', ui-monospace, SFMono-Regular, Menlo, Monaco, Consolas, 'Liberation Mono', 'Courier New', monospace" font-size="14" font-weight="300" text-anchor="start" dominant-baseline="alphabetic">service_endpoints: </text><text x="1046.4" y="465.6" fill="#E6E7E8" font-family="'Geist Mono', ui-monospace, SFMono-Regular, Menlo, Monaco, Consolas, 'Liberation Mono', 'Courier New', monospace" font-size="14" font-weight="300" text-anchor="start" dominant-baseline="alphabetic">[1 items]</text><path d="M 878.5 350 h 302 a 4 4 0 0 1 4 4 v 119 a 4 4 0 0 1 -4 4 h -302 a 4 4 0 0 1 -4 -4 v -119 a 4 4 0 0 1 4 -4 Z" stroke="#532D33" stroke-width="1" stroke-linecap="round" stroke-linejoin="round" fill="none"/><path d="M 578.5 198 h 195 a 4 4 0 0 1 4 4 v 121 a 4 4 0 0 1 -4 4 h -195 a 4 4 0 0 1 -4 -4 v -121 a 4 4 0 0 1 4 -4 Z" fill="rgba(24, 24, 24, 0.08)" stroke="none"/><path d="M 576.5 196 h 193 a 4 4 0 0 1 4 4 v 119 a 4 4 0 0 1 -4 4 h -193 a 4 4 0 0 1 -4 -4 v -119 a 4 4 0 0 1 4 -4 Z" fill="#303030" stroke="none"/><g clip-path="url(#clip-26)"><rect x="572.5" y="196" width="201" height="32" fill="#291b32" stroke="none"/></g><text x="584.8" y="216" fill="#b45eed" font-family="'Geist Mono', ui-monospace, SFMono-Regular, Menlo, Monaco, Consolas, 'Liberation Mono', 'Courier New', monospace" font-size="14" font-weight="300" text-anchor="start" dominant-baseline="alphabetic">subnets</text><g clip-path="url(#clip-27)"><rect x="572.5" y="228" width="201" height="31" fill="#262626" stroke="none"/></g><path d="M 572.5 227.5 L 773.5 227.5" stroke="#414141" stroke-width="1" stroke-linecap="round" stroke-linejoin="round" fill="none"/><text x="584.8" y="247.2" fill="#5199FF" font-family="'Geist Mono', ui-monospace, SFMono-Regular, Menlo, Monaco, Consolas, 'Liberation Mono', 'Courier New', monospace" font-size="14" font-weight="300" text-anchor="start" dominant-baseline="alphabetic">postgressSN: </text><text x="693.6" y="247.2" fill="#E6E7E8" font-family="'Geist Mono', ui-monospace, SFMono-Regular, Menlo, Monaco, Consolas, 'Liberation Mono', 'Courier New', monospace" font-size="14" font-weight="300" text-anchor="start" dominant-baseline="alphabetic">{4 keys}</text><g clip-path="url(#clip-28)"><rect x="572.5" y="260" width="201" height="31" fill="#262626" stroke="none"/></g><path d="M 572.5 259.5 L 773.5 259.5" stroke="#414141" stroke-width="1" stroke-linecap="round" stroke-linejoin="round" fill="none"/><text x="584.8" y="279.2" fill="#5199FF" font-family="'Geist Mono', ui-monospace, SFMono-Regular, Menlo, Monaco, Consolas, 'Liberation Mono', 'Courier New', monospace" font-size="14" font-weight="300" text-anchor="start" dominant-baseline="alphabetic">frontend: </text><text x="668.8" y="279.2" fill="#E6E7E8" font-family="'Geist Mono', ui-monospace, SFMono-Regular, Menlo, Monaco, Consolas, 'Liberation Mono', 'Courier New', monospace" font-size="14" font-weight="300" text-anchor="start" dominant-baseline="alphabetic">{3 keys}</text><g clip-path="url(#clip-29)"><rect x="572.5" y="292" width="201" height="31" fill="#262626" stroke="none"/></g><path d="M 572.5 291.5 L 773.5 291.5" stroke="#414141" stroke-width="1" stroke-linecap="round" stroke-linejoin="round" fill="none"/><text x="584.8" y="311.2" fill="#5199FF" font-family="'Geist Mono', ui-monospace, SFMono-Regular, Menlo, Monaco, Consolas, 'Liberation Mono', 'Courier New', monospace" font-size="14" font-weight="300" text-anchor="start" dominant-baseline="alphabetic">backend: </text><text x="660" y="311.2" fill="#E6E7E8" font-family="'Geist Mono', ui-monospace, SFMono-Regular, Menlo, Monaco, Consolas, 'Liberation Mono', 'Courier New', monospace" font-size="14" font-weight="300" text-anchor="start" dominant-baseline="alphabetic">{3 keys}</text><path d="M 576.5 196 h 193 a 4 4 0 0 1 4 4 v 119 a 4 4 0 0 1 -4 4 h -193 a 4 4 0 0 1 -4 -4 v -119 a 4 4 0 0 1 4 -4 Z" stroke="#442D53" stroke-width="1" stroke-linecap="round" stroke-linejoin="round" fill="none"/><path d="M 209.5 76 h 262 a 4 4 0 0 1 4 4 v 121 a 4 4 0 0 1 -4 4 h -262 a 4 4 0 0 1 -4 -4 v -121 a 4 4 0 0 1 4 -4 Z" fill="rgba(24, 24, 24, 0.08)" stroke="none"/><path d="M 207.5 74 h 260 a 4 4 0 0 1 4 4 v 119 a 4 4 0 0 1 -4 4 h -260 a 4 4 0 0 1 -4 -4 v -119 a 4 4 0 0 1 4 -4 Z" fill="#303030" stroke="none"/><g clip-path="url(#clip-30)"><rect x="203.5" y="74" width="268" height="32" fill="#321b1f" stroke="none"/></g><text x="215.2" y="93.6" fill="#ed5e79" font-family="'Geist Mono', ui-monospace, SFMono-Regular, Menlo, Monaco, Consolas, 'Liberation Mono', 'Courier New', monospace" font-size="14" font-weight="300" text-anchor="start" dominant-baseline="alphabetic">vnet1</text><g clip-path="url(#clip-31)"><rect x="203.5" y="106" width="268" height="31" fill="#303030" stroke="none"/></g><path d="M 203.5 105.5 L 471.5 105.5" stroke="#414141" stroke-width="1" stroke-linecap="round" stroke-linejoin="round" fill="none"/><text x="215.2" y="125.6" fill="#5199FF" font-family="'Geist Mono', ui-monospace, SFMono-Regular, Menlo, Monaco, Consolas, 'Liberation Mono', 'Courier New', monospace" font-size="14" font-weight="300" text-anchor="start" dominant-baseline="alphabetic">vnet_name: </text><text x="308" y="125.6" fill="#E6E7E8" font-family="'Geist Mono', ui-monospace, SFMono-Regular, Menlo, Monaco, Consolas, 'Liberation Mono', 'Courier New', monospace" font-size="14" font-weight="300" text-anchor="start" dominant-baseline="alphabetic">vnet-app-prod</text><g clip-path="url(#clip-32)"><rect x="203.5" y="138" width="268" height="31" fill="#262626" stroke="none"/></g><path d="M 203.5 137.5 L 471.5 137.5" stroke="#414141" stroke-width="1" stroke-linecap="round" stroke-linejoin="round" fill="none"/><text x="215.2" y="157.6" fill="#5199FF" font-family="'Geist Mono', ui-monospace, SFMono-Regular, Menlo, Monaco, Consolas, 'Liberation Mono', 'Courier New', monospace" font-size="14" font-weight="300" text-anchor="start" dominant-baseline="alphabetic">vnet_address_space: </text><text x="383.2" y="157.6" fill="#E6E7E8" font-family="'Geist Mono', ui-monospace, SFMono-Regular, Menlo, Monaco, Consolas, 'Liberation Mono', 'Courier New', monospace" font-size="14" font-weight="300" text-anchor="start" dominant-baseline="alphabetic">[1 items]</text><g clip-path="url(#clip-33)"><rect x="203.5" y="170" width="268" height="31" fill="#262626" stroke="none"/></g><path d="M 203.5 169.5 L 471.5 169.5" stroke="#414141" stroke-width="1" stroke-linecap="round" stroke-linejoin="round" fill="none"/><text x="215.2" y="189.6" fill="#5199FF" font-family="'Geist Mono', ui-monospace, SFMono-Regular, Menlo, Monaco, Consolas, 'Liberation Mono', 'Courier New', monospace" font-size="14" font-weight="300" text-anchor="start" dominant-baseline="alphabetic">subnets: </text><text x="291.2" y="189.6" fill="#E6E7E8" font-family="'Geist Mono', ui-monospace, SFMono-Regular, Menlo, Monaco, Consolas, 'Liberation Mono', 'Courier New', monospace" font-size="14" font-weight="300" text-anchor="start" dominant-baseline="alphabetic">{3 keys}</text><path d="M 207.5 74 h 260 a 4 4 0 0 1 4 4 v 119 a 4 4 0 0 1 -4 4 h -260 a 4 4 0 0 1 -4 -4 v -119 a 4 4 0 0 1 4 -4 Z" stroke="#532D33" stroke-width="1" stroke-linecap="round" stroke-linejoin="round" fill="none"/><path d="M 18.5 101 h 144 a 4 4 0 0 1 4 4 v 57 a 4 4 0 0 1 -4 4 h -144 a 4 4 0 0 1 -4 -4 v -57 a 4 4 0 0 1 4 -4 Z" fill="rgba(24, 24, 24, 0.08)" stroke="none"/><path d="M 16.5 99 h 142 a 4 4 0 0 1 4 4 v 55 a 4 4 0 0 1 -4 4 h -142 a 4 4 0 0 1 -4 -4 v -55 a 4 4 0 0 1 4 -4 Z" fill="#303030" stroke="none"/><g clip-path="url(#clip-34)"><rect x="12.5" y="99" width="150" height="32" fill="#321c1b" stroke="none"/></g><text x="24.8" y="118.4" fill="#ed685e" font-family="'Geist Mono', ui-monospace, SFMono-Regular, Menlo, Monaco, Consolas, 'Liberation Mono', 'Courier New', monospace" font-size="14" font-weight="300" text-anchor="start" dominant-baseline="alphabetic">Vnets</text><g clip-path="url(#clip-35)"><rect x="12.5" y="131" width="150" height="31" fill="#262626" stroke="none"/></g><path d="M 12.5 130.5 L 162.5 130.5" stroke="#414141" stroke-width="1" stroke-linecap="round" stroke-linejoin="round" fill="none"/><text x="24.8" y="150.4" fill="#5199FF" font-family="'Geist Mono', ui-monospace, SFMono-Regular, Menlo, Monaco, Consolas, 'Liberation Mono', 'Courier New', monospace" font-size="14" font-weight="300" text-anchor="start" dominant-baseline="alphabetic">vnet1: </text><text x="83.2" y="150.4" fill="#E6E7E8" font-family="'Geist Mono', ui-monospace, SFMono-Regular, Menlo, Monaco, Consolas, 'Liberation Mono', 'Courier New', monospace" font-size="14" font-weight="300" text-anchor="start" dominant-baseline="alphabetic">{3 keys}</text><path d="M 16.5 99 h 142 a 4 4 0 0 1 4 4 v 55 a 4 4 0 0 1 -4 4 h -142 a 4 4 0 0 1 -4 -4 v -55 a 4 4 0 0 1 4 -4 Z" stroke="#532E2D" stroke-width="1" stroke-linecap="round" stroke-linejoin="round" fill="none"/><path d="M1772,290L1812,290L1812,290" stroke="#444444" stroke-width="1" stroke-linecap="round" stroke-linejoin="round" fill="none"/><path d="M1185,104L1227,104C1231.4182779986463,104,1235,100.41827799864635,1235,96L1235,61C1235,56.581722001353654,1238.5817220013537,53,1243,53L1285,53" stroke="#444444" stroke-width="1" stroke-linecap="round" stroke-linejoin="round" fill="none"/><path d="M1185,136L1285,136L1285,136" stroke="#444444" stroke-width="1" stroke-linecap="round" stroke-linejoin="round" fill="none"/><path d="M1185,168L1227,168C1231.4182779986463,168,1235,171.58172200135365,1235,176L1235,243C1235,247.41827799864635,1238.5817220013537,251,1243,251L1285,251" stroke="#444444" stroke-width="1" stroke-linecap="round" stroke-linejoin="round" fill="none"/><path d="M774,244L816,244C820.4182779986463,244,824,240.41827799864635,824,236L824,121C824,116.58172200135365,827.5817220013537,113,832,113L874,113" stroke="#444444" stroke-width="1" stroke-linecap="round" stroke-linejoin="round" fill="none"/><path d="M774,276L874,276L874,276" stroke="#444444" stroke-width="1" stroke-linecap="round" stroke-linejoin="round" fill="none"/><path d="M774,308L816,308C820.4182779986463,308,824,311.5817220013536,824,316L824,415C824,419.4182779986464,827.5817220013537,423,832,423L874,423" stroke="#444444" stroke-width="1" stroke-linecap="round" stroke-linejoin="round" fill="none"/><path d="M472,154L512,154L512,154" stroke="#444444" stroke-width="1" stroke-linecap="round" stroke-linejoin="round" fill="none"/><path d="M472,186L514,186C518.4182779986463,186,522,189.58172200135365,522,194L522,261C522,265.4182779986464,525.5817220013537,269,530,269L572,269" stroke="#444444" stroke-width="1" stroke-linecap="round" stroke-linejoin="round" fill="none"/><path d="M163,147L203,147L203,147" stroke="#444444" stroke-width="1" stroke-linecap="round" stroke-linejoin="round" fill="none"/></svg>